<svg preserveAspectRatio="none" overflow="visible" style="display: block;" width="81.0719" height="81.7052" viewBox="0 0 81.0719 81.7052" fill="none" xmlns="http://www.w3.org/2000/svg">
<g id="logos:whatsapp-icon" clip-path="url(#clip0_0_11)">
<path id="Vector" d="M1.72995 40.3633C1.72805 47.2281 3.52177 53.9311 6.93248 59.8392L1.40376 80.0255L22.0619 74.6089C27.7757 77.7193 34.1775 79.3492 40.6831 79.3497H40.7002C62.1763 79.3497 79.6584 61.8739 79.6676 40.394C79.6717 29.9855 75.6219 20.1979 68.264 12.8343C60.9073 5.47136 51.1233 1.41429 40.6986 1.40954C19.2199 1.40954 1.73914 18.8843 1.73027 40.3633" fill="url(#paint0_linear_0_11)"/>
<path id="Vector_2" d="M0.338855 40.351C0.336638 47.4628 2.19464 54.4055 5.72697 60.5252L0 81.4351L21.3989 75.8243C27.2949 79.039 33.9333 80.7339 40.6883 80.7365H40.7057C62.9523 80.7365 81.0624 62.6321 81.0719 40.3833C81.0757 29.6007 76.8802 19.4614 69.2594 11.834C61.6377 4.2075 51.5037 0.00443362 40.7057 0C18.4552 0 0.347722 18.1018 0.338855 40.351ZM13.0827 59.4713L12.2837 58.2029C8.92487 52.8623 7.15206 46.6907 7.15459 40.3535C7.16156 21.8606 22.2118 6.8151 40.7183 6.8151C49.6806 6.8189 58.1032 10.3126 64.4382 16.6514C70.7729 22.9908 74.2587 31.4179 74.2564 40.3807C74.2482 58.8737 59.1977 73.9211 40.7057 73.9211H40.6924C34.6712 73.9179 28.7659 72.3009 23.616 69.2452L22.3904 68.5184L9.69189 71.8477L13.0827 59.4713Z" fill="url(#paint1_linear_0_11)"/>
<path id="Vector_3" d="M30.6164 23.4816C29.8608 21.8022 29.0656 21.7683 28.347 21.7389C27.7586 21.7135 27.086 21.7154 26.4139 21.7154C25.7413 21.7154 24.6484 21.9685 23.7246 22.9771C22.7999 23.9867 20.1942 26.4265 20.1942 31.3886C20.1942 36.3508 23.8086 41.1467 24.3124 41.8203C24.8169 42.4926 31.29 53.0016 41.5418 57.0444C50.0619 60.4041 51.7958 59.7359 53.6449 59.5674C55.4944 59.3996 59.6126 57.1283 60.4527 54.7731C61.2935 52.4182 61.2935 50.3997 61.0415 49.9778C60.7894 49.5576 60.1167 49.3052 59.1081 48.801C58.0994 48.2969 53.1404 45.8565 52.216 45.5198C51.2913 45.1835 50.619 45.0157 49.9463 46.0256C49.2737 47.0339 47.3422 49.3052 46.7535 49.9778C46.1654 50.6521 45.5767 50.736 44.5683 50.2315C43.5591 49.7254 40.3108 48.6617 36.457 45.2259C33.4586 42.5525 31.4344 39.251 30.846 38.2411C30.2576 37.2328 30.783 36.6862 31.2887 36.1836C31.7419 35.7317 32.2977 35.0058 32.8025 34.4171C33.3054 33.8281 33.4732 33.4078 33.8095 32.7352C34.1462 32.0619 33.9777 31.4729 33.7259 30.9684C33.4732 30.4639 31.5132 25.4758 30.6164 23.4816Z" fill="white"/>
</g>
<defs>
<linearGradient id="paint0_linear_0_11" x1="40.5357" y1="80.0255" x2="40.5357" y2="1.40954" gradientUnits="userSpaceOnUse">
<stop stop-color="#1FAF38"/>
<stop offset="1" stop-color="#60D669"/>
</linearGradient>
<linearGradient id="paint1_linear_0_11" x1="40.5359" y1="81.4351" x2="40.5359" y2="0" gradientUnits="userSpaceOnUse">
<stop stop-color="#F9F9F9"/>
<stop offset="1" stop-color="white"/>
</linearGradient>
<clipPath id="clip0_0_11">
<rect width="81.0719" height="81.7052" fill="white"/>
</clipPath>
</defs>
</svg>
